<svg width="11" height="12" viewBox="0 0 11 12" fill="none" xmlns="http://www.w3.org/2000/svg">
<path d="M4.25 0.999969H2.25C1.69772 0.999969 1.25 1.44768 1.25 1.99997V3.99997C1.25 4.55225 1.69772 4.99997 2.25 4.99997H4.25C4.80228 4.99997 5.25 4.55225 5.25 3.99997V1.99997C5.25 1.44768 4.80228 0.999969 4.25 0.999969Z" stroke="#E6704B" stroke-linecap="round" stroke-linejoin="bevel"/>
<path d="M4.25 6.99997H2.25C1.69772 6.99997 1.25 7.44768 1.25 7.99997V9.99997C1.25 10.5523 1.69772 11 2.25 11H4.25C4.80228 11 5.25 10.5523 5.25 9.99997V7.99997C5.25 7.44768 4.80228 6.99997 4.25 6.99997Z" stroke="#E6704B" stroke-linecap="round" stroke-linejoin="bevel"/>
<path d="M9.75 7.99994H6.75" stroke="#E6704B" stroke-linecap="round" stroke-linejoin="bevel"/>
<path d="M8.75 9.99997H6.75" stroke="#E6704B" stroke-linecap="round" stroke-linejoin="bevel"/>
<path d="M8.75 3.99997H6.75" stroke="#E6704B" stroke-linecap="round" stroke-linejoin="bevel"/>
<path d="M9.75 1.99994H6.75" stroke="#E6704B" stroke-linecap="round" stroke-linejoin="bevel"/>
</svg>
